{"accessors" : [{"bufferView" : 0, "byteOffset" : 0, "componentType" : 5123, "count" : 32928, "type" : "SCALAR", "max" : [32927], "min" : [0]}, {"bufferView" : 1, "byteOffset" : 0, "componentType" : 5126, "count" : 32928, "type" : "VEC3", "max" : [23.606550216674805, 48.952781677246094, 27.682397842407227], "min" : [-23.73612403869629, -0.1917276382446289, -27.658283233642578], "name" : "POSITION"}, {"bufferView" : 1, "byteOffset" : 12, "componentType" : 5126, "count" : 32928, "type" : "VEC3", "max" : [0.9997254014015198, 1.0000038146972656, 0.9999865293502808], "min" : [-0.9999285936355591, -1.0000016689300537, -0.9997692108154297], "name" : "NORMAL"}, {"bufferView" : 1, "byteOffset" : 24, "componentType" : 5126, "count" : 32928, "type" : "VEC4", "max" : [1.0000040531158447, 1, 1.0000044107437134, 1], "min" : [-1.0000044107437134, -1.0000044107437134, -1.0000044107437134, -1], "name" : "TANGENT"}, {"bufferView" : 1, "byteOffset" : 40, "componentType" : 5126, "count" : 32928, "type" : "VEC2", "max" : [0.8720298409461975, -0.008018684573471546], "min" : [0.007822036743164062, -0.991170346736908], "name" : "TEXCOORD_0"}], "asset" : {"generator" : "Aspose.3D 22.7", "version" : "2.0"}, "buffers" : [{"uri" : "data:application/octet-stream;base64,", "byteLength" : 1646408}], "bufferViews" : [{"buffer" : 0, "byteOffset" : 0, "byteLength" : 65856, "target" : 34963}, {"buffer" : 0, "byteOffset" : 65860, "byteLength" : 1580544, "byteStride" : 48, "target" : 34962}], "materials" : [{"name" : "SEDUTA", "pbrMetallicRoughness" : {"baseColorFactor" : [0.5882353186607361, 0.5882353186607361, 0.5882353186607361, 1], "metallicFactor" : 0, "roughnessFactor" : 0}, "emissiveFactor" : [0, 0, 0], "alphaMode" : "OPAQUE", "doubleSided" : false}], "meshes" : [{"primitives" : [{"attributes" : {"POSITION" : 1, "NORMAL" : 2, "TANGENT" : 3, "TEXCOORD_0" : 4}, "indices" : 0, "material" : 0, "mode" : 4}], "name" : ""}], "nodes" : [{"matrix" : [1, 0, 0, 0, 0, 0.999999999999999, 4.3711388286737916E-08, 0, 0, -4.3711388286737916E-08, 0.999999999999999, 0, 0.06478691101074219, 0.19172884576576898, -0.012058258057809785, 1], "mesh" : 0, "name" : "MP_AKILA_UV"}], "scene" : 0, "scenes" : [{"nodes" : [0]}]}