{"accessors" : [{"bufferView" : 0, "byteOffset" : 0, "componentType" : 5123, "count" : 26868, "type" : "SCALAR", "max" : [26867], "min" : [0]}, {"bufferView" : 1, "byteOffset" : 0, "componentType" : 5126, "count" : 26868, "type" : "VEC3", "max" : [23.5, 45.5, 23.49598503112793], "min" : [-23.5, -1.027042117129895E-06, -23.495988845825195], "name" : "POSITION"}, {"bufferView" : 1, "byteOffset" : 12, "componentType" : 5126, "count" : 26868, "type" : "VEC3", "max" : [1.0000044107437134, 1.0000044107437134, 1.0000044107437134], "min" : [-1.0000044107437134, -1.0000044107437134, -1.0000044107437134], "name" : "NORMAL"}, {"bufferView" : 1, "byteOffset" : 24, "componentType" : 5126, "count" : 26868, "type" : "VEC2", "max" : [0.990570068359375, -0.00390625], "min" : [0.00390625, -0.99609375], "name" : "TEXCOORD_0"}], "asset" : {"generator" : "Aspose.3D 22.7", "version" : "2.0"}, "buffers" : [{"uri" : "data:application/octet-stream;base64,", "byteLength" : 913520}], "bufferViews" : [{"buffer" : 0, "byteOffset" : 0, "byteLength" : 53736, "target" : 34963}, {"buffer" : 0, "byteOffset" : 53740, "byteLength" : 859776, "byteStride" : 32, "target" : 34962}], "materials" : [{"name" : "BASE", "pbrMetallicRoughness" : {"baseColorFactor" : [0.5882353186607361, 0.5882353186607361, 0.5882353186607361, 1], "metallicFactor" : 0, "roughnessFactor" : 0}, "emissiveFactor" : [0, 0, 0], "alphaMode" : "OPAQUE", "doubleSided" : false}], "meshes" : [{"primitives" : [{"attributes" : {"POSITION" : 1, "NORMAL" : 2, "TEXCOORD_0" : 3}, "indices" : 0, "material" : 0, "mode" : 4}], "name" : ""}], "nodes" : [{"matrix" : [1, 0, 0, 0, 0, 0.999999999999999, 4.3711388286737916E-08, 0, 0, -4.3711388286737916E-08, 0.999999999999999, 0, 0, -4.168642537890764E-14, -2.389996517835176E-14, 1], "mesh" : 0, "name" : "BASE_1"}], "scene" : 0, "scenes" : [{"nodes" : [0]}]}