{"accessors" : [{"bufferView" : 0, "byteOffset" : 0, "componentType" : 5123, "count" : 1638, "type" : "SCALAR", "max" : [1637], "min" : [0]}, {"bufferView" : 1, "byteOffset" : 0, "componentType" : 5126, "count" : 1638, "type" : "VEC3", "max" : [33.5, 37.50000762939453, 33.5], "min" : [-33.5, 0.5000002384185791, -33.499996185302734], "name" : "POSITION"}, {"bufferView" : 1, "byteOffset" : 12, "componentType" : 5126, "count" : 1638, "type" : "VEC3", "max" : [1.0000044107437134, 1.0000044107437134, 1.0000044107437134], "min" : [-1.0000044107437134, -1.0000044107437134, -1.0000044107437134], "name" : "NORMAL"}, {"bufferView" : 1, "byteOffset" : 24, "componentType" : 5126, "count" : 1638, "type" : "VEC2", "max" : [0.9510458707809448, -0.00390625], "min" : [0.00390625, -0.99609375], "name" : "TEXCOORD_0"}, {"bufferView" : 0, "byteOffset" : 3276, "componentType" : 5123, "count" : 1152, "type" : "SCALAR", "max" : [1151], "min" : [0]}, {"bufferView" : 2, "byteOffset" : 0, "componentType" : 5126, "count" : 1152, "type" : "VEC3", "max" : [34.25, 1.000005841255188, 34.25], "min" : [-34.25, 1.420130786300433E-07, -34.25], "name" : "POSITION"}, {"bufferView" : 2, "byteOffset" : 12, "componentType" : 5126, "count" : 1152, "type" : "VEC3", "max" : [1.0000044107437134, 1.0000044107437134, 1.0000044107437134], "min" : [-1.0000044107437134, -1.0000044107437134, -1.0000044107437134], "name" : "NORMAL"}, {"bufferView" : 2, "byteOffset" : 24, "componentType" : 5126, "count" : 1152, "type" : "VEC2", "max" : [0.9915796518325806, -0.00390625], "min" : [0.00390625, -0.11042104661464691], "name" : "TEXCOORD_0"}], "asset" : {"generator" : "Aspose.3D 22.7", "version" : "2.0"}, "buffers" : [{"uri" : "data:application/octet-stream;base64,", "byteLength" : 94872}], "bufferViews" : [{"buffer" : 0, "byteOffset" : 0, "byteLength" : 5580, "target" : 34963}, {"buffer" : 0, "byteOffset" : 5584, "byteLength" : 52416, "byteStride" : 32, "target" : 34962}, {"buffer" : 0, "byteOffset" : 58004, "byteLength" : 36864, "byteStride" : 32, "target" : 34962}], "materials" : [{"name" : "BASE", "pbrMetallicRoughness" : {"baseColorFactor" : [0.5882353186607361, 0.5882353186607361, 0.5882353186607361, 1], "metallicFactor" : 0, "roughnessFactor" : 0}, "emissiveFactor" : [0, 0, 0], "alphaMode" : "OPAQUE", "doubleSided" : false}, {"name" : "PIEDI", "pbrMetallicRoughness" : {"baseColorFactor" : [0.5882353186607361, 0.5882353186607361, 0.5882353186607361, 1], "metallicFactor" : 0, "roughnessFactor" : 0}, "emissiveFactor" : [0, 0, 0], "alphaMode" : "OPAQUE", "doubleSided" : false}], "meshes" : [{"primitives" : [{"attributes" : {"POSITION" : 1, "NORMAL" : 2, "TEXCOORD_0" : 3}, "indices" : 0, "material" : 0, "mode" : 4}], "name" : ""}, {"primitives" : [{"attributes" : {"POSITION" : 5, "NORMAL" : 6, "TEXCOORD_0" : 7}, "indices" : 4, "material" : 1, "mode" : 4}], "name" : ""}], "nodes" : [{"matrix" : [1, 0, 0, 0, 0, 0.999999999999999, 4.3711388286737916E-08, 0, 0, -4.3711388286737916E-08, 0.999999999999999, 0, 0, 0, 0, 1], "mesh" : 0, "name" : "BASE_2"}, {"matrix" : [1, 0, 0, 0, 0, 0.999999999999999, 4.3711388286737916E-08, 0, 0, -4.3711388286737916E-08, 0.999999999999999, 0, 0, 0, 0, 1], "mesh" : 1, "name" : "PIEDI_2"}], "scene" : 0, "scenes" : [{"nodes" : [0, 1]}]}